<svg width="20" height="20" viewBox="0 0 20 20" fill="none" xmlns="http://www.w3.org/2000/svg">
<g clip-path="url(#clip0_350_610)">
<path d="M6.9999 8.00002C5.93904 8.00002 4.92162 7.5786 4.17147 6.82845C3.42133 6.07831 2.9999 5.06089 2.9999 4.00002C2.9999 2.93916 3.42133 1.92174 4.17147 1.1716C4.92162 0.421452 5.93904 2.49494e-05 6.9999 2.49494e-05C8.06077 2.49494e-05 9.07818 0.421452 9.82833 1.1716C10.5785 1.92174 10.9999 2.93916 10.9999 4.00002C10.9999 5.06089 10.5785 6.07831 9.82833 6.82845C9.07818 7.5786 8.06077 8.00002 6.9999 8.00002ZM6.9999 9.00002C9.1499 9.00002 11.1999 9.40002 13.0999 10.09L11.9999 16H10.7499L9.9999 20H3.9999L3.2499 16H1.9999L0.899902 10.09C2.85457 9.37542 4.91872 9.00658 6.9999 9.00002ZM15.3099 9.17002C16.6299 9.35002 17.8999 9.65002 19.1099 10.09L17.9999 16H16.7499L15.9999 20H12.0399L12.4099 18H13.6599L15.3099 9.17002ZM12.9999 2.49494e-05C13.5853 -0.00499354 14.1646 0.118523 14.697 0.361858C15.2294 0.605193 15.7019 0.962415 16.0811 1.40831C16.4604 1.85421 16.7372 2.37791 16.8919 2.94246C17.0466 3.507 17.0756 4.09863 16.9767 4.67559C16.8778 5.25255 16.6535 5.80077 16.3196 6.28157C15.9857 6.76236 15.5503 7.16401 15.0442 7.45817C14.5381 7.75232 13.9736 7.93181 13.3906 7.98397C12.8076 8.03613 12.2202 7.95968 11.6699 7.76003C12.5339 6.69739 13.0056 5.3696 13.0056 4.00002C13.0056 2.63045 12.5339 1.30266 11.6699 0.240025C12.0999 0.100025 12.5299 2.49494e-05 12.9999 2.49494e-05Z" fill="#1E3A8A"/>
</g>
<defs>
<clipPath id="clip0_350_610">
<rect width="20" height="20" fill="white"/>
</clipPath>
</defs>
</svg>
